# xmcd CD database file
#
# Track frame offsets:
#	187
#	22890
#	46972
#	71460
#	92890
#	119547
#	153320
#	180080
#	204697
#	238235
#	271685
#	288257
#	315305
#
# Disc length: 4522 seconds
#
# Revision: 0
# Processed by: cddbd v1.4PL0 Copyright (c) Steve Scherf et al.
# Submitted via: CDex 1.50Beta7
#
DISCID=a711a80d
DTITLE=Dave Stahl Band - Miranda
DYEAR=1988
DGENRE=Jazz
TTITLE0=Miranda
TTITLE1=Talk Back
TTITLE2=Ooo Baby Baby
TTITLE3=Breaking Out
TTITLE4=High Fever
TTITLE5=Ballad for Jo
TTITLE6=Tektite's
TTITLE7=Jigsaw
TTITLE8=Morningside
TTITLE9=Bull Buster
TTITLE10=Ribo - Jolt
TTITLE11=Lori - Ann
TTITLE12=Night Flight
EXTD=YEAR: 1988
EXTT0=
EXTT1=
EXTT2=
EXTT3=
EXTT4=
EXTT5=
EXTT6=
EXTT7=
EXTT8=
EXTT9=
EXTT10=
EXTT11=
EXTT12=
PLAYORDER=
